<svg width="38" height="11" viewBox="0 0 38 11" fill="none" xmlns="http://www.w3.org/2000/svg">
<path d="M2.91211 8.5293L4.48242 3.66016H5.58984L3.31641 10H2.49023L0.193359 3.66016H1.30078L2.91211 8.5293ZM9.18164 10.1172C8.32227 10.1172 7.62305 9.83594 7.08398 9.27344C6.54492 8.70703 6.27539 7.95117 6.27539 7.00586V6.80664C6.27539 6.17773 6.39453 5.61719 6.63281 5.125C6.875 4.62891 7.21094 4.24219 7.64062 3.96484C8.07422 3.68359 8.54297 3.54297 9.04688 3.54297C9.87109 3.54297 10.5117 3.81445 10.9688 4.35742C11.4258 4.90039 11.6543 5.67773 11.6543 6.68945V7.14062H7.35938C7.375 7.76562 7.55664 8.27148 7.9043 8.6582C8.25586 9.04102 8.70117 9.23242 9.24023 9.23242C9.62305 9.23242 9.94727 9.1543 10.2129 8.99805C10.4785 8.8418 10.7109 8.63477 10.9102 8.37695L11.5723 8.89258C11.041 9.70898 10.2441 10.1172 9.18164 10.1172ZM9.04688 4.43359C8.60938 4.43359 8.24219 4.59375 7.94531 4.91406C7.64844 5.23047 7.46484 5.67578 7.39453 6.25H10.5703V6.16797C10.5391 5.61719 10.3906 5.19141 10.125 4.89062C9.85938 4.58594 9.5 4.43359 9.04688 4.43359ZM15.9785 4.63281C15.8145 4.60547 15.6367 4.5918 15.4453 4.5918C14.7344 4.5918 14.252 4.89453 13.998 5.5V10H12.9141V3.66016H13.9688L13.9863 4.39258C14.3418 3.82617 14.8457 3.54297 15.498 3.54297C15.709 3.54297 15.8691 3.57031 15.9785 3.625V4.63281ZM18.1582 10H17.0742V3.66016H18.1582V10ZM16.9863 1.97852C16.9863 1.80273 17.0391 1.6543 17.1445 1.5332C17.2539 1.41211 17.4141 1.35156 17.625 1.35156C17.8359 1.35156 17.9961 1.41211 18.1055 1.5332C18.2148 1.6543 18.2695 1.80273 18.2695 1.97852C18.2695 2.1543 18.2148 2.30078 18.1055 2.41797C17.9961 2.53516 17.8359 2.59375 17.625 2.59375C17.4141 2.59375 17.2539 2.53516 17.1445 2.41797C17.0391 2.30078 16.9863 2.1543 16.9863 1.97852ZM20.2617 10V4.49805H19.2598V3.66016H20.2617V3.12109C20.2617 2.41406 20.4629 1.86328 20.8652 1.46875C21.2715 1.07422 21.8438 0.876953 22.582 0.876953C23.0195 0.876953 23.5723 0.996094 24.2402 1.23438L24.0586 2.14844C23.5703 1.95313 23.1055 1.85547 22.6641 1.85547C22.1992 1.85547 21.8633 1.96094 21.6562 2.17188C21.4531 2.37891 21.3516 2.69141 21.3516 3.10938V3.66016H22.6465V4.49805H21.3516V10H20.2617ZM24.7793 10H23.6895V3.66016H24.7793V10ZM29.1738 10.1172C28.3145 10.1172 27.6152 9.83594 27.0762 9.27344C26.5371 8.70703 26.2676 7.95117 26.2676 7.00586V6.80664C26.2676 6.17773 26.3867 5.61719 26.625 5.125C26.8672 4.62891 27.2031 4.24219 27.6328 3.96484C28.0664 3.68359 28.5352 3.54297 29.0391 3.54297C29.8633 3.54297 30.5039 3.81445 30.9609 4.35742C31.418 4.90039 31.6465 5.67773 31.6465 6.68945V7.14062H27.3516C27.3672 7.76562 27.5488 8.27148 27.8965 8.6582C28.248 9.04102 28.6934 9.23242 29.2324 9.23242C29.6152 9.23242 29.9395 9.1543 30.2051 8.99805C30.4707 8.8418 30.7031 8.63477 30.9023 8.37695L31.5645 8.89258C31.0332 9.70898 30.2363 10.1172 29.1738 10.1172ZM29.0391 4.43359C28.6016 4.43359 28.2344 4.59375 27.9375 4.91406C27.6406 5.23047 27.457 5.67578 27.3867 6.25H30.5625V6.16797C30.5312 5.61719 30.3828 5.19141 30.1172 4.89062C29.8516 4.58594 29.4922 4.43359 29.0391 4.43359ZM32.6426 6.77734C32.6426 5.80469 32.873 5.02344 33.334 4.43359C33.7949 3.83984 34.3984 3.54297 35.1445 3.54297C35.8867 3.54297 36.4746 3.79688 36.9082 4.30469V1H37.9922V10H36.9961L36.9434 9.32031C36.5098 9.85156 35.9062 10.1172 35.1328 10.1172C34.3984 10.1172 33.7988 9.81641 33.334 9.21484C32.873 8.61328 32.6426 7.82812 32.6426 6.85938V6.77734ZM33.7266 6.90039C33.7266 7.61914 33.875 8.18164 34.1719 8.58789C34.4688 8.99414 34.8789 9.19727 35.4023 9.19727C36.0898 9.19727 36.5918 8.88867 36.9082 8.27148V5.35938C36.584 4.76172 36.0859 4.46289 35.4141 4.46289C34.8828 4.46289 34.4688 4.66797 34.1719 5.07812C33.875 5.48828 33.7266 6.0957 33.7266 6.90039Z" fill="#1CC62D" fill-opacity="0.8"/>
</svg>
