<svg width="782" height="1165" viewBox="0 0 782 1165" fill="none" xmlns="http://www.w3.org/2000/svg">
<rect x="48" width="742" height="1190" fill="url(#paint0_linear_32_3437)"/>
<path d="M438.594 259.39V271.706H448.053V278.428H438.594V309.971C438.594 312.008 439.016 313.543 439.858 314.577C440.701 315.58 442.137 316.082 444.166 316.082C445.165 316.082 446.539 315.894 448.287 315.518V322.569C446.008 323.196 443.792 323.509 441.638 323.509C437.767 323.509 434.848 322.334 432.881 319.983C430.915 317.633 429.931 314.295 429.931 309.971V278.428H420.707V271.706H429.931V259.39H438.594Z" fill="#F5F7FA"/>
<path d="M479.239 323.509C472.371 323.509 466.784 321.253 462.476 316.74C458.168 312.196 456.014 306.132 456.014 298.548V296.949C456.014 291.904 456.966 287.407 458.87 283.458C460.805 279.478 463.49 276.376 466.924 274.15C470.389 271.894 474.135 270.766 478.162 270.766C484.749 270.766 489.869 272.944 493.521 277.3C497.174 281.656 499 287.893 499 296.009V299.629H464.676C464.801 304.643 466.253 308.701 469.031 311.804C471.841 314.875 475.4 316.411 479.708 316.411C482.767 316.411 485.358 315.784 487.481 314.53C489.604 313.277 491.461 311.616 493.053 309.548L498.344 313.684C494.099 320.234 487.73 323.509 479.239 323.509ZM478.162 277.911C474.666 277.911 471.732 279.196 469.359 281.766C466.986 284.304 465.519 287.877 464.957 292.484H490.337V291.826C490.087 287.407 488.901 283.991 486.778 281.578C484.656 279.133 481.784 277.911 478.162 277.911Z" fill="#F5F7FA"/>
<path d="M381.761 312.178C379.462 313.51 377.03 314.176 374.465 314.176C371.782 314.176 369.586 313.451 367.876 312.001C366.166 310.55 365.311 308.538 365.311 305.963C365.311 300.074 370.323 297.129 380.346 297.129H386.758V306.984C385.726 309.115 384.061 310.846 381.761 312.178Z" fill="#F5F7FA"/>
<path fill-rule="evenodd" clip-rule="evenodd" d="M417.744 297.243C417.744 319.753 400.117 338 378.372 338C356.628 338 339 319.753 339 297.243C339 274.734 356.628 256.486 378.372 256.486C400.117 256.486 417.744 274.734 417.744 297.243ZM386.891 315.374C387.186 317.801 387.569 319.488 388.04 320.435H396.619V319.725C395.499 317.121 394.939 313.614 394.939 309.204V287.097C394.821 282.243 393.2 278.44 390.075 275.688C386.95 272.906 382.631 271.515 377.118 271.515C373.639 271.515 370.441 272.166 367.522 273.468C364.633 274.77 362.334 276.546 360.624 278.795C358.943 281.015 358.103 283.323 358.103 285.72H366.328C366.328 283.619 367.316 281.829 369.291 280.349C371.266 278.869 373.713 278.129 376.632 278.129C379.963 278.129 382.483 278.987 384.193 280.704C385.903 282.391 386.758 284.67 386.758 287.54V291.314H378.798C371.929 291.314 366.593 292.705 362.791 295.487C359.017 298.239 357.13 302.116 357.13 307.117C357.13 311.231 358.634 314.635 361.641 317.328C364.677 319.991 368.554 321.323 373.271 321.323C378.548 321.323 383.088 319.34 386.891 315.374Z" fill="#F5F7FA"/>
<path fill-rule="evenodd" clip-rule="evenodd" d="M369.747 223.724C371.018 223.142 374.787 221.667 375.918 225.937L383.993 248.727C384.323 249.966 384.551 251.102 384.529 252.068C382.516 251.773 380.459 251.619 378.372 251.619C377.057 251.619 375.764 251.685 374.478 251.803L361.32 233.681C358.447 230.333 361.783 228.039 362.98 227.316L369.747 223.724Z" fill="#F5F7FA"/>
<path d="M266.263 417.182H267.797C267.727 415.207 265.905 413.73 263.374 413.73C260.868 413.73 258.899 415.188 258.899 417.386C258.899 419.151 260.178 420.199 262.223 420.787L263.834 421.247C265.215 421.631 266.442 422.116 266.442 423.42C266.442 424.852 265.061 425.798 263.246 425.798C261.686 425.798 260.306 425.108 260.178 423.625H258.541C258.695 425.773 260.433 427.23 263.246 427.23C266.263 427.23 267.976 425.568 267.976 423.446C267.976 420.991 265.649 420.199 264.294 419.841L262.965 419.483C261.993 419.227 260.433 418.716 260.433 417.31C260.433 416.057 261.584 415.136 263.323 415.136C264.908 415.136 266.11 415.891 266.263 417.182ZM274.864 417.182H272.767V414.83H271.259V417.182H269.776V418.46H271.259V424.597C271.259 426.31 272.639 427.128 273.918 427.128C274.48 427.128 274.838 427.026 275.043 426.949L274.736 425.594C274.608 425.619 274.404 425.67 274.071 425.67C273.406 425.67 272.767 425.466 272.767 424.188V418.46H274.864V417.182ZM280.238 427.23C281.951 427.23 282.846 426.31 283.153 425.67H283.23V427H284.738V420.531C284.738 417.412 282.36 417.054 281.107 417.054C279.624 417.054 277.937 417.565 277.17 419.355L278.602 419.866C278.934 419.151 279.72 418.384 281.159 418.384C282.546 418.384 283.23 419.119 283.23 420.378V420.429C283.23 421.158 282.488 421.094 280.698 421.324C278.877 421.56 276.889 421.963 276.889 424.213C276.889 426.131 278.372 427.23 280.238 427.23ZM280.468 425.875C279.267 425.875 278.397 425.338 278.397 424.29C278.397 423.139 279.445 422.781 280.622 422.628C281.261 422.551 282.974 422.372 283.23 422.065V423.446C283.23 424.673 282.258 425.875 280.468 425.875ZM287.707 427H289.216V420.787C289.216 419.457 290.264 418.486 291.696 418.486C292.099 418.486 292.514 418.562 292.617 418.588V417.054C292.444 417.041 292.048 417.028 291.824 417.028C290.648 417.028 289.625 417.693 289.267 418.665H289.165V417.182H287.707V427ZM299.506 417.182H297.409V414.83H295.901V417.182H294.418V418.46H295.901V424.597C295.901 426.31 297.281 427.128 298.56 427.128C299.122 427.128 299.48 427.026 299.685 426.949L299.378 425.594C299.25 425.619 299.046 425.67 298.713 425.67C298.048 425.67 297.409 425.466 297.409 424.188V418.46H299.506V417.182ZM314.224 419.381C313.751 417.987 312.69 417.054 310.747 417.054C308.676 417.054 307.142 418.23 307.142 419.892C307.142 421.247 307.947 422.155 309.75 422.577L311.386 422.96C312.377 423.19 312.843 423.663 312.843 424.341C312.843 425.185 311.949 425.875 310.542 425.875C309.309 425.875 308.535 425.344 308.267 424.29L306.835 424.648C307.186 426.316 308.561 427.205 310.568 427.205C312.85 427.205 314.403 425.958 314.403 424.264C314.403 422.896 313.547 422.033 311.795 421.605L310.338 421.247C309.174 420.96 308.65 420.57 308.65 419.815C308.65 418.972 309.545 418.358 310.747 418.358C312.064 418.358 312.607 419.087 312.869 419.764L314.224 419.381ZM321.006 427.205C323.001 427.205 324.458 426.207 324.918 424.724L323.461 424.315C323.077 425.338 322.189 425.849 321.006 425.849C319.236 425.849 318.015 424.705 317.945 422.602H325.072V421.963C325.072 418.307 322.898 417.054 320.853 417.054C318.194 417.054 316.43 419.151 316.43 422.168C316.43 425.185 318.168 427.205 321.006 427.205ZM317.945 421.298C318.047 419.771 319.127 418.409 320.853 418.409C322.489 418.409 323.538 419.636 323.538 421.298H317.945ZM329.091 413.909H327.582V427H329.091V413.909ZM333.578 413.909H332.07V427H333.578V413.909ZM336.557 427H338.066V417.182H336.557V427ZM337.324 415.545C337.912 415.545 338.398 415.085 338.398 414.523C338.398 413.96 337.912 413.5 337.324 413.5C336.736 413.5 336.251 413.96 336.251 414.523C336.251 415.085 336.736 415.545 337.324 415.545ZM342.553 421.094C342.553 419.381 343.614 418.409 345.059 418.409C346.459 418.409 347.309 419.323 347.309 420.864V427H348.818V420.761C348.818 418.256 347.482 417.054 345.494 417.054C344.011 417.054 343.09 417.719 342.63 418.716H342.502V417.182H341.045V427H342.553V421.094ZM355.753 430.886C358.106 430.886 359.998 429.812 359.998 427.281V417.182H358.54V418.741H358.387C358.054 418.23 357.441 417.054 355.523 417.054C353.043 417.054 351.33 419.023 351.33 422.04C351.33 425.108 353.12 426.847 355.498 426.847C357.415 426.847 358.029 425.722 358.361 425.185H358.489V427.179C358.489 428.815 357.338 429.557 355.753 429.557C353.97 429.557 353.343 428.617 352.941 428.074L351.739 428.918C352.353 429.947 353.561 430.886 355.753 430.886ZM355.702 425.491C353.81 425.491 352.838 424.06 352.838 422.014C352.838 420.02 353.784 418.409 355.702 418.409C357.543 418.409 358.515 419.892 358.515 422.014C358.515 424.188 357.517 425.491 355.702 425.491ZM371.143 427.23C372.856 427.23 373.751 426.31 374.057 425.67H374.134V427H375.643V420.531C375.643 417.412 373.265 417.054 372.012 417.054C370.529 417.054 368.841 417.565 368.074 419.355L369.506 419.866C369.839 419.151 370.625 418.384 372.063 418.384C373.45 418.384 374.134 419.119 374.134 420.378V420.429C374.134 421.158 373.393 421.094 371.603 421.324C369.781 421.56 367.793 421.963 367.793 424.213C367.793 426.131 369.276 427.23 371.143 427.23ZM371.373 425.875C370.171 425.875 369.302 425.338 369.302 424.29C369.302 423.139 370.35 422.781 371.526 422.628C372.165 422.551 373.878 422.372 374.134 422.065V423.446C374.134 424.673 373.162 425.875 371.373 425.875ZM380.12 421.094C380.12 419.381 381.182 418.409 382.626 418.409C384.026 418.409 384.876 419.323 384.876 420.864V427H386.385V420.761C386.385 418.256 385.049 417.054 383.061 417.054C381.578 417.054 380.657 417.719 380.197 418.716H380.069V417.182H378.612V427H380.12V421.094ZM393.065 427.205C394.957 427.205 395.596 426.028 395.928 425.491H396.107V427H397.565V413.909H396.056V418.741H395.928C395.596 418.23 395.008 417.054 393.09 417.054C390.61 417.054 388.897 419.023 388.897 422.116C388.897 425.236 390.61 427.205 393.065 427.205ZM393.269 425.849C391.377 425.849 390.406 424.188 390.406 422.091C390.406 420.02 391.352 418.409 393.269 418.409C395.11 418.409 396.082 419.892 396.082 422.091C396.082 424.315 395.085 425.849 393.269 425.849ZM406.031 427H407.54V420.787C407.54 419.457 408.588 418.486 410.02 418.486C410.423 418.486 410.838 418.562 410.941 418.588V417.054C410.768 417.041 410.372 417.028 410.148 417.028C408.972 417.028 407.949 417.693 407.591 418.665H407.489V417.182H406.031V427ZM419.132 422.986C419.132 424.827 417.726 425.67 416.601 425.67C415.348 425.67 414.453 424.75 414.453 423.318V417.182H412.945V423.42C412.945 425.926 414.274 427.128 416.115 427.128C417.598 427.128 418.57 426.335 419.03 425.338H419.132V427H420.641V417.182H419.132V422.986ZM425.128 421.094C425.128 419.381 426.189 418.409 427.634 418.409C429.034 418.409 429.884 419.323 429.884 420.864V427H431.392V420.761C431.392 418.256 430.057 417.054 428.069 417.054C426.586 417.054 425.665 417.719 425.205 418.716H425.077V417.182H423.62V427H425.128V421.094ZM435.874 421.094C435.874 419.381 436.935 418.409 438.379 418.409C439.779 418.409 440.629 419.323 440.629 420.864V427H442.138V420.761C442.138 418.256 440.802 417.054 438.814 417.054C437.331 417.054 436.41 417.719 435.95 418.716H435.822V417.182H434.365V427H435.874V421.094ZM445.11 427H446.619V417.182H445.11V427ZM445.877 415.545C446.465 415.545 446.951 415.085 446.951 414.523C446.951 413.96 446.465 413.5 445.877 413.5C445.289 413.5 444.803 413.96 444.803 414.523C444.803 415.085 445.289 415.545 445.877 415.545ZM451.106 421.094C451.106 419.381 452.167 418.409 453.612 418.409C455.012 418.409 455.862 419.323 455.862 420.864V427H457.371V420.761C457.371 418.256 456.035 417.054 454.047 417.054C452.564 417.054 451.643 417.719 451.183 418.716H451.055V417.182H449.598V427H451.106V421.094ZM464.306 430.886C466.658 430.886 468.55 429.812 468.55 427.281V417.182H467.093V418.741H466.94C466.607 418.23 465.994 417.054 464.076 417.054C461.596 417.054 459.883 419.023 459.883 422.04C459.883 425.108 461.673 426.847 464.05 426.847C465.968 426.847 466.582 425.722 466.914 425.185H467.042V427.179C467.042 428.815 465.891 429.557 464.306 429.557C462.523 429.557 461.896 428.617 461.494 428.074L460.292 428.918C460.906 429.947 462.114 430.886 464.306 430.886ZM464.255 425.491C462.363 425.491 461.391 424.06 461.391 422.014C461.391 420.02 462.337 418.409 464.255 418.409C466.096 418.409 467.068 419.892 467.068 422.014C467.068 424.188 466.07 425.491 464.255 425.491ZM479.696 427.23C481.409 427.23 482.304 426.31 482.61 425.67H482.687V427H484.196V420.531C484.196 417.412 481.818 417.054 480.565 417.054C479.082 417.054 477.394 417.565 476.627 419.355L478.059 419.866C478.392 419.151 479.178 418.384 480.616 418.384C482.003 418.384 482.687 419.119 482.687 420.378V420.429C482.687 421.158 481.946 421.094 480.156 421.324C478.334 421.56 476.346 421.963 476.346 424.213C476.346 426.131 477.829 427.23 479.696 427.23ZM479.926 425.875C478.724 425.875 477.855 425.338 477.855 424.29C477.855 423.139 478.903 422.781 480.079 422.628C480.718 422.551 482.431 422.372 482.687 422.065V423.446C482.687 424.673 481.715 425.875 479.926 425.875ZM499.398 419.381C498.925 417.987 497.864 417.054 495.921 417.054C493.85 417.054 492.316 418.23 492.316 419.892C492.316 421.247 493.121 422.155 494.924 422.577L496.56 422.96C497.551 423.19 498.017 423.663 498.017 424.341C498.017 425.185 497.122 425.875 495.716 425.875C494.482 425.875 493.709 425.344 493.441 424.29L492.009 424.648C492.36 426.316 493.735 427.205 495.742 427.205C498.024 427.205 499.577 425.958 499.577 424.264C499.577 422.896 498.72 422.033 496.969 421.605L495.512 421.247C494.348 420.96 493.824 420.57 493.824 419.815C493.824 418.972 494.719 418.358 495.921 418.358C497.237 418.358 497.781 419.087 498.043 419.764L499.398 419.381ZM508.251 422.986C508.251 424.827 506.845 425.67 505.72 425.67C504.467 425.67 503.572 424.75 503.572 423.318V417.182H502.064V423.42C502.064 425.926 503.393 427.128 505.234 427.128C506.717 427.128 507.689 426.335 508.149 425.338H508.251V427H509.76V417.182H508.251V422.986ZM516.727 427.205C518.901 427.205 520.332 425.875 520.588 424.136H519.08C518.798 425.21 517.903 425.849 516.727 425.849C514.938 425.849 513.787 424.366 513.787 422.091C513.787 419.866 514.963 418.409 516.727 418.409C518.057 418.409 518.85 419.227 519.08 420.122H520.588C520.332 418.281 518.773 417.054 516.702 417.054C514.043 417.054 512.278 419.151 512.278 422.142C512.278 425.082 513.966 427.205 516.727 427.205ZM526.998 427.205C529.171 427.205 530.603 425.875 530.859 424.136H529.35C529.069 425.21 528.174 425.849 526.998 425.849C525.208 425.849 524.058 424.366 524.058 422.091C524.058 419.866 525.234 418.409 526.998 418.409C528.328 418.409 529.12 419.227 529.35 420.122H530.859C530.603 418.281 529.043 417.054 526.972 417.054C524.313 417.054 522.549 419.151 522.549 422.142C522.549 425.082 524.237 427.205 526.998 427.205ZM537.397 427.205C539.391 427.205 540.848 426.207 541.308 424.724L539.851 424.315C539.468 425.338 538.579 425.849 537.397 425.849C535.626 425.849 534.405 424.705 534.335 422.602H541.462V421.963C541.462 418.307 539.289 417.054 537.243 417.054C534.584 417.054 532.82 419.151 532.82 422.168C532.82 425.185 534.558 427.205 537.397 427.205ZM534.335 421.298C534.437 419.771 535.517 418.409 537.243 418.409C538.879 418.409 539.928 419.636 539.928 421.298H534.335ZM550.927 419.381C550.454 417.987 549.393 417.054 547.45 417.054C545.379 417.054 543.845 418.23 543.845 419.892C543.845 421.247 544.65 422.155 546.453 422.577L548.089 422.96C549.08 423.19 549.546 423.663 549.546 424.341C549.546 425.185 548.652 425.875 547.245 425.875C546.012 425.875 545.238 425.344 544.97 424.29L543.538 424.648C543.89 426.316 545.264 427.205 547.271 427.205C549.553 427.205 551.106 425.958 551.106 424.264C551.106 422.896 550.25 422.033 548.498 421.605L547.041 421.247C545.877 420.96 545.353 420.57 545.353 419.815C545.353 418.972 546.248 418.358 547.45 418.358C548.767 418.358 549.31 419.087 549.572 419.764L550.927 419.381ZM560.547 419.381C560.074 417.987 559.013 417.054 557.07 417.054C554.999 417.054 553.465 418.23 553.465 419.892C553.465 421.247 554.27 422.155 556.073 422.577L557.709 422.96C558.7 423.19 559.167 423.663 559.167 424.341C559.167 425.185 558.272 425.875 556.866 425.875C555.632 425.875 554.859 425.344 554.59 424.29L553.158 424.648C553.51 426.316 554.884 427.205 556.891 427.205C559.173 427.205 560.726 425.958 560.726 424.264C560.726 422.896 559.87 422.033 558.118 421.605L556.661 421.247C555.498 420.96 554.974 420.57 554.974 419.815C554.974 418.972 555.868 418.358 557.07 418.358C558.387 418.358 558.93 419.087 559.192 419.764L560.547 419.381ZM567.585 417.182H565.387V416.185C565.387 415.213 565.796 414.702 566.793 414.702C567.227 414.702 567.483 414.804 567.637 414.855L568.071 413.551C567.841 413.449 567.381 413.295 566.639 413.295C565.233 413.295 563.878 414.139 563.878 415.827V417.182H562.293V418.46H563.878V427H565.387V418.46H567.585V417.182ZM576.103 422.986C576.103 424.827 574.697 425.67 573.572 425.67C572.319 425.67 571.424 424.75 571.424 423.318V417.182H569.916V423.42C569.916 425.926 571.245 427.128 573.086 427.128C574.569 427.128 575.541 426.335 576.001 425.338H576.103V427H577.612V417.182H576.103V422.986ZM582.099 413.909H580.591V427H582.099V413.909ZM347.246 455H348.703V453.491H348.882C349.215 454.028 349.854 455.205 351.746 455.205C354.201 455.205 355.914 453.236 355.914 450.116C355.914 447.023 354.201 445.054 351.721 445.054C349.803 445.054 349.215 446.23 348.882 446.741H348.755V441.909H347.246V455ZM348.729 450.091C348.729 447.892 349.701 446.409 351.542 446.409C353.459 446.409 354.405 448.02 354.405 450.091C354.405 452.188 353.434 453.849 351.542 453.849C349.726 453.849 348.729 452.315 348.729 450.091ZM364.625 450.986C364.625 452.827 363.218 453.67 362.093 453.67C360.841 453.67 359.946 452.75 359.946 451.318V445.182H358.437V451.42C358.437 453.926 359.767 455.128 361.608 455.128C363.091 455.128 364.062 454.335 364.522 453.338H364.625V455H366.133V445.182H364.625V450.986ZM376.067 447.381C375.594 445.987 374.533 445.054 372.589 445.054C370.518 445.054 368.984 446.23 368.984 447.892C368.984 449.247 369.79 450.155 371.592 450.577L373.229 450.96C374.219 451.19 374.686 451.663 374.686 452.341C374.686 453.185 373.791 453.875 372.385 453.875C371.151 453.875 370.378 453.344 370.109 452.29L368.678 452.648C369.029 454.316 370.403 455.205 372.411 455.205C374.692 455.205 376.246 453.958 376.246 452.264C376.246 450.896 375.389 450.033 373.638 449.605L372.18 449.247C371.017 448.96 370.493 448.57 370.493 447.815C370.493 446.972 371.388 446.358 372.589 446.358C373.906 446.358 374.45 447.087 374.712 447.764L376.067 447.381ZM378.733 455H380.241V445.182H378.733V455ZM379.5 443.545C380.088 443.545 380.573 443.085 380.573 442.523C380.573 441.96 380.088 441.5 379.5 441.5C378.911 441.5 378.426 441.96 378.426 442.523C378.426 443.085 378.911 443.545 379.5 443.545ZM384.729 449.094C384.729 447.381 385.79 446.409 387.234 446.409C388.634 446.409 389.484 447.323 389.484 448.864V455H390.993V448.761C390.993 446.256 389.657 445.054 387.669 445.054C386.186 445.054 385.265 445.719 384.805 446.716H384.677V445.182H383.22V455H384.729V449.094ZM398.082 455.205C400.076 455.205 401.533 454.207 401.994 452.724L400.536 452.315C400.153 453.338 399.264 453.849 398.082 453.849C396.311 453.849 395.09 452.705 395.02 450.602H402.147V449.963C402.147 446.307 399.974 445.054 397.928 445.054C395.269 445.054 393.505 447.151 393.505 450.168C393.505 453.185 395.244 455.205 398.082 455.205ZM395.02 449.298C395.122 447.771 396.203 446.409 397.928 446.409C399.565 446.409 400.613 447.636 400.613 449.298H395.02ZM411.612 447.381C411.139 445.987 410.078 445.054 408.135 445.054C406.064 445.054 404.53 446.23 404.53 447.892C404.53 449.247 405.335 450.155 407.138 450.577L408.774 450.96C409.765 451.19 410.232 451.663 410.232 452.341C410.232 453.185 409.337 453.875 407.931 453.875C406.697 453.875 405.923 453.344 405.655 452.29L404.223 452.648C404.575 454.316 405.949 455.205 407.956 455.205C410.238 455.205 411.791 453.958 411.791 452.264C411.791 450.896 410.935 450.033 409.183 449.605L407.726 449.247C406.563 448.96 406.039 448.57 406.039 447.815C406.039 446.972 406.933 446.358 408.135 446.358C409.452 446.358 409.995 447.087 410.257 447.764L411.612 447.381ZM421.233 447.381C420.76 445.987 419.699 445.054 417.755 445.054C415.684 445.054 414.15 446.23 414.15 447.892C414.15 449.247 414.956 450.155 416.758 450.577L418.395 450.96C419.385 451.19 419.852 451.663 419.852 452.341C419.852 453.185 418.957 453.875 417.551 453.875C416.317 453.875 415.544 453.344 415.275 452.29L413.843 452.648C414.195 454.316 415.569 455.205 417.576 455.205C419.858 455.205 421.412 453.958 421.412 452.264C421.412 450.896 420.555 450.033 418.804 449.605L417.346 449.247C416.183 448.96 415.659 448.57 415.659 447.815C415.659 446.972 416.554 446.358 417.755 446.358C419.072 446.358 419.616 447.087 419.878 447.764L421.233 447.381ZM440.427 448.455C440.427 444.312 437.998 441.73 434.649 441.73C431.299 441.73 428.87 444.312 428.87 448.455C428.87 452.597 431.299 455.179 434.649 455.179C437.998 455.179 440.427 452.597 440.427 448.455ZM438.893 448.455C438.893 451.855 437.026 453.696 434.649 453.696C432.271 453.696 430.404 451.855 430.404 448.455C430.404 445.054 432.271 443.213 434.649 443.213C437.026 443.213 438.893 445.054 438.893 448.455ZM453.689 441.909H452.129V452.213H452.002L444.843 441.909H443.308V455H444.894V444.722H445.022L452.155 455H453.689V441.909ZM457.077 455H464.748V453.594H458.662V441.909H457.077V455ZM469.003 441.909H467.418V455H469.003V441.909ZM482.779 441.909H481.219V452.213H481.091L473.932 441.909H472.398V455H473.983V444.722H474.111L481.244 455H482.779V441.909ZM486.167 455H494.169V453.594H487.752V449.145H493.658V447.739H487.752V443.315H494.067V441.909H486.167V455Z" fill="#EEF4FB"/>
<path d="M123.735 1169.14H284.008L297.304 1133.32C302.013 1120.63 311.648 1110.42 323.976 1104.85C335.585 1099.59 351.208 1090.05 366.353 1073.04C395.824 1039.93 411.459 1004.41 411.459 1004.41L312.132 1003.93C312.132 1003.93 321.073 948.319 271.704 874.467C266.418 866.562 264.017 857.073 264.842 847.597L269.52 793.734C269.52 793.734 303.068 756.215 282.487 709.661C282.487 709.661 262.807 682.388 254.996 692.373C254.996 692.373 195.545 834.066 190.135 855.13C184.724 876.199 177.503 889.438 184.724 955.653C186.635 973.183 187.324 987.8 187.299 999.822C187.256 1022.9 182.106 1045.68 172.247 1066.53L123.735 1169.14Z" fill="#B96B4A"/>
<path opacity="0.2" d="M273.218 1077.23C258.34 1060.7 237.673 1063.3 215.945 1055.77C194.211 1048.23 187.243 993.861 187.243 993.861V993.854C187.281 995.904 187.293 997.897 187.293 999.816C187.25 1022.89 182.1 1045.67 172.241 1066.53L123.741 1169.14H284.014L297.31 1133.32C302.019 1120.63 311.654 1110.42 323.983 1104.85C333.86 1100.38 346.647 1092.79 359.571 1080.14C315.42 1098.71 288.096 1093.76 273.218 1077.23Z" fill="#F6C19D"/>
<path d="M202.351 527.231C239.199 585.417 330.013 637.274 330.013 637.274C330.013 637.274 257.819 631.406 221.994 584.709L234.986 573.941C234.986 573.941 224.662 574.941 216.013 575.941C208.041 562.714 202.878 546.674 202.351 527.231Z" fill="#9C75C4"/>
<path d="M299.028 551.3C293.426 553.846 285.137 557.721 285.137 557.721L293.122 546.239C283.821 538.999 273.584 534.167 263.44 531.007C259.326 536.999 254.493 543.693 254.493 543.693L253.531 528.405C226.344 522.543 202.345 527.231 202.345 527.231C239.193 585.416 330.007 637.274 330.007 637.274C329.598 594.52 316.593 567.824 299.028 551.3Z" fill="#AC8CCE"/>
<path d="M188.819 609.336C199.658 602.959 210.653 599.525 221.337 598.127C224.557 601.804 228.503 606.132 228.503 606.132L228.72 597.469C269.787 595.501 304.414 621.389 304.414 621.389C280.912 635.696 260.685 639.714 244.026 638.522C242.978 635.497 241.482 630.983 241.482 630.983L238.697 637.95C230.693 636.808 223.608 634.491 217.465 631.641C218.942 628.027 220.493 623.891 220.493 623.891L211.738 628.692C196.711 620.184 188.819 609.336 188.819 609.336Z" fill="#5B99E6"/>
<path d="M244.032 638.515C242.984 635.491 241.489 630.977 241.489 630.977L238.703 637.944C230.699 636.802 223.614 634.485 217.471 631.635C218.948 628.021 220.499 623.885 220.499 623.885L211.745 628.685C196.711 620.172 188.819 609.317 188.819 609.317C236.6 603.853 304.42 621.364 304.42 621.364C280.918 635.696 260.698 639.708 244.032 638.515Z" fill="#2671D1"/>
<path d="M593.224 601.952L589.762 625.852L608.307 613.453L665.071 586.906L621.162 590.587C621.162 590.587 598.795 595.562 597.585 596.562C596.369 597.567 593.224 601.952 593.224 601.952Z" fill="#085FCC"/>
<path d="M573.779 587.52L665.071 586.906L593.224 601.952L573.779 587.52Z" fill="#88B2E7"/>
<path d="M622.571 626L598.646 608.41L665.071 586.906L622.571 626Z" fill="#88B2E7"/>
<path d="M583.811 616.968C587.304 615.652 589.879 615.366 589.904 615.366L589.73 613.745C589.619 613.758 586.92 614.056 583.234 615.44L583.811 616.968Z" fill="#141414"/>
<path d="M526.284 762.512C530.062 760.599 533.618 758.531 536.85 756.37L537.756 757.73C534.468 759.929 530.857 762.021 527.022 763.965L526.284 762.512ZM546.473 748.888C549.538 746.087 552.299 743.063 554.675 739.908L555.978 740.89C553.54 744.125 550.711 747.217 547.571 750.092L546.473 748.888ZM560.973 729.526C561.773 727.849 562.505 726.098 563.157 724.322C563.895 722.316 564.547 720.217 565.099 718.087L566.675 718.497C566.11 720.677 565.44 722.832 564.689 724.887C564.019 726.707 563.269 728.501 562.443 730.227L560.973 729.526ZM567.556 693.838L569.188 693.801C569.287 698.229 569.156 702.296 568.784 706.221L567.159 706.065C567.531 702.209 567.655 698.21 567.556 693.838ZM565.242 669.385L566.855 669.155C567.537 673.93 568.027 677.83 568.387 681.431L566.768 681.593C566.402 678.016 565.918 674.135 565.242 669.385ZM563.417 657.102C562.772 652.705 562.561 648.539 562.803 644.72L564.429 644.819C564.199 648.526 564.404 652.581 565.031 656.86L565.043 656.953L563.43 657.176L563.417 657.102ZM565.465 632.455C567.103 628.438 569.485 624.935 572.538 622.048L573.661 623.234C570.776 625.96 568.524 629.27 566.973 633.07L565.465 632.455Z" fill="#141414"/>
<path d="M509.52 771.317C511.617 770.591 513.683 769.821 515.668 769.044L515.073 767.529C513.112 768.299 511.064 769.057 508.986 769.783L509.52 771.317Z" fill="#141414"/>
<path d="M501.063 597.891C501.063 597.891 535.014 575.151 542.763 590.135C550.512 605.119 498.656 658.132 498.656 658.132L501.063 597.891Z" fill="#B96B4A"/>
<path d="M501.063 696.973C501.063 696.973 535.014 674.233 542.763 689.217C550.512 704.201 498.656 757.214 498.656 757.214L501.063 696.973Z" fill="#B96B4A"/>
<path d="M501.063 764.479C501.063 764.479 535.014 741.739 542.763 756.723C550.518 771.701 498.662 824.72 498.662 824.72L501.063 764.479Z" fill="#B96B4A"/>
<path d="M477.617 572.407H291.254C277.375 572.407 266.126 583.665 266.126 597.557V907.95V978.765C266.126 992.768 277.499 1003.91 291.254 1003.91H477.617C491.49 1003.91 502.744 992.656 502.744 978.765V668.379V597.563C502.751 583.547 491.366 572.407 477.617 572.407Z" fill="#141414"/>
<path opacity="0.2" d="M283.102 892.934C283.102 892.934 249.393 975.523 252.663 991.134C255.932 1006.75 276.388 1027.63 326.576 1020.67C376.763 1013.71 411.452 1004.4 411.452 1004.4C411.452 1004.4 413.549 892.946 411.452 887.295C409.355 881.644 319.118 841.523 315.563 841.523C312.014 841.523 283.102 892.934 283.102 892.934Z" fill="#F6C19D"/>
<path d="M490.565 606.69H278.305V969.643H490.565V606.69Z" fill="white"/>
<path d="M428.558 854.273H340.313C328.568 854.273 319.044 844.741 319.044 832.986V710.766C319.044 699.011 328.568 689.485 340.306 689.485H428.552C440.297 689.485 449.814 699.017 449.814 710.766V832.992C449.827 844.747 440.303 854.273 428.558 854.273Z" fill="#DAE7F7"/>
<path d="M338.966 756.222L349.328 805.993C349.781 808.16 351.636 809.706 353.783 809.706H415.076C417.223 809.706 419.078 808.16 419.531 805.993L429.892 756.222H338.966ZM357.251 804.881C355.867 804.881 354.738 803.757 354.738 802.366L351.257 767.089C351.257 765.704 352.38 764.574 353.77 764.574C355.154 764.574 356.283 765.698 356.283 767.089L359.764 802.366C359.757 803.757 358.634 804.881 357.251 804.881ZM369.871 804.881C368.487 804.881 367.358 803.757 367.358 802.366L365.968 767.089C365.968 765.704 367.091 764.574 368.481 764.574C369.864 764.574 370.994 765.698 370.994 767.089L372.383 802.366C372.383 803.757 371.26 804.881 369.871 804.881ZM386.945 802.366C386.945 803.751 385.822 804.881 384.432 804.881C383.049 804.881 381.92 803.757 381.92 802.366V767.095C381.92 765.71 383.043 764.58 384.432 764.58C385.816 764.58 386.945 765.704 386.945 767.095V802.366ZM401.513 802.366C401.513 803.751 400.39 804.881 399 804.881C397.617 804.881 396.488 803.757 396.488 802.366L397.877 767.089C397.877 765.704 399 764.574 400.39 764.574C401.774 764.574 402.903 765.698 402.903 767.089L401.513 802.366ZM414.133 802.366C414.133 803.751 413.01 804.881 411.62 804.881C410.237 804.881 409.107 803.757 409.107 802.366L412.594 767.095C412.594 765.71 413.717 764.58 415.107 764.58C416.491 764.58 417.62 765.704 417.62 767.095L414.133 802.366Z" fill="#88B2E7"/>
<path d="M430.55 760.24H338.321C336.1 760.24 334.307 758.439 334.307 756.222C334.307 753.999 336.106 752.204 338.321 752.204H430.55C432.771 752.204 434.564 754.005 434.564 756.222C434.564 758.439 432.771 760.24 430.55 760.24Z" fill="#085FCC"/>
<path d="M357.691 752.502V749.031C357.691 743.243 362.376 738.555 368.158 738.555H400.719C406.502 738.555 411.186 743.243 411.186 749.031V752.502C411.186 753.744 412.191 754.75 413.432 754.75C414.673 754.75 415.678 753.744 415.678 752.502V749.031C415.678 740.759 408.977 734.053 400.713 734.053H368.152C359.888 734.053 353.187 740.759 353.187 749.031V752.502C353.187 753.744 354.192 754.75 355.433 754.75C356.686 754.756 357.691 753.744 357.691 752.502Z" fill="#88B2E7"/>
<path d="M427.987 595.283H341.225C340.102 595.283 339.19 594.37 339.19 593.246V592.768C339.19 591.644 340.102 590.731 341.225 590.731H427.987C429.11 590.731 430.022 591.644 430.022 592.768V593.246C430.022 594.37 429.11 595.283 427.987 595.283Z" fill="white"/>
<path d="M261.895 826.229C261.895 826.229 263.173 830.992 266.071 833.339L269.514 793.727C269.514 793.727 294.189 766.125 288.227 728.898C286.185 716.156 279.851 704.425 270.165 695.906C264.637 691.043 258.563 687.79 254.983 692.366C254.983 692.366 227.026 758.996 207.712 807.668L261.895 826.229Z" fill="#B96B4A"/>
<path opacity="0.3" d="M394.738 987.13C394.738 992.892 390.072 997.562 384.314 997.562C378.557 997.562 373.891 992.892 373.891 987.13C373.891 981.367 378.557 976.697 384.314 976.697C390.072 976.691 394.738 981.367 394.738 987.13Z" fill="#DAE7F7"/>
<path d="M387.423 991.477H381.206C380.523 991.477 379.971 990.924 379.971 990.241V984.019C379.971 983.336 380.523 982.783 381.206 982.783H387.423C388.105 982.783 388.657 983.336 388.657 984.019V990.241C388.657 990.918 388.105 991.477 387.423 991.477ZM381.206 983.119C380.71 983.119 380.306 983.522 380.306 984.019V990.241C380.306 990.738 380.71 991.141 381.206 991.141H387.423C387.919 991.141 388.322 990.738 388.322 990.241V984.019C388.322 983.522 387.919 983.119 387.423 983.119H381.206Z" fill="#DAE7F7"/>
<path d="M490.565 948.17H278.305V969.637H490.565V948.17Z" fill="#D0E1F5"/>
<path d="M490.565 606.69H278.305V625.953H490.565V606.69Z" fill="#D0E1F5"/>
<path d="M260.015 731.5C267.739 727.942 271.772 707.829 273.218 698.788C267.02 692.547 259.239 686.927 254.989 692.367C254.989 692.367 248.835 707.04 240.303 727.644C246.136 730.892 254.245 734.158 260.015 731.5Z" fill="#DF9866"/>
<path d="M169.914 1074.49C186.871 1084.91 241.47 1116.1 297.924 1122.74C301.231 1123.14 303.558 1126.17 302.577 1128.79L292.712 1155.23C292.061 1156.98 290.094 1158 287.891 1157.73C271.251 1155.71 202.605 1145.37 154.31 1107.97C152.666 1106.7 151.971 1104.77 152.585 1103.12L162.649 1076.14C163.598 1073.59 167.153 1072.79 169.914 1074.49Z" fill="#141414"/>
<path d="M164.957 1099.77L164.771 1099.7C163.778 1099.33 163.276 1098.23 163.648 1097.23L166.682 1089.09C167.054 1088.1 168.152 1087.6 169.145 1087.97L169.331 1088.04C170.324 1088.41 170.826 1089.51 170.454 1090.5L167.42 1098.64C167.054 1099.64 165.95 1100.14 164.957 1099.77Z" fill="black"/>
<path d="M175.114 1106.03L174.928 1105.97C173.935 1105.59 173.432 1104.49 173.805 1103.5L176.839 1095.36C177.211 1094.37 178.309 1093.86 179.302 1094.24L179.488 1094.3C180.481 1094.68 180.983 1095.78 180.611 1096.77L177.577 1104.91C177.205 1105.9 176.107 1106.41 175.114 1106.03Z" fill="black"/>
<path d="M185.283 1112.26L185.097 1112.19C184.104 1111.81 183.601 1110.72 183.974 1109.72L187.007 1101.58C187.38 1100.59 188.478 1100.08 189.471 1100.46L189.657 1100.53C190.649 1100.9 191.152 1102 190.78 1102.99L187.746 1111.13C187.38 1112.12 186.275 1112.62 185.283 1112.26Z" fill="black"/>
<path d="M195.75 1117.32L195.563 1117.25C194.571 1116.88 194.068 1115.78 194.44 1114.78L197.474 1106.64C197.847 1105.65 198.945 1105.14 199.938 1105.52L200.124 1105.59C201.116 1105.96 201.619 1107.06 201.247 1108.05L198.213 1116.19C197.847 1117.18 196.742 1117.68 195.75 1117.32Z" fill="black"/>
<path d="M206.049 1123.2L205.863 1123.13C204.87 1122.76 204.368 1121.66 204.74 1120.66L207.774 1112.52C208.146 1111.53 209.244 1111.03 210.237 1111.4L210.423 1111.47C211.416 1111.84 211.918 1112.94 211.546 1113.93L208.512 1122.07C208.14 1123.06 207.042 1123.56 206.049 1123.2Z" fill="black"/>
<path d="M216.801 1127.86L216.615 1127.79C215.622 1127.42 215.12 1126.32 215.492 1125.33L218.526 1117.19C218.898 1116.19 219.997 1115.69 220.989 1116.06L221.175 1116.13C222.168 1116.5 222.671 1117.6 222.298 1118.6L219.264 1126.74C218.892 1127.72 217.794 1128.23 216.801 1127.86Z" fill="black"/>
<path d="M227.764 1131.95L227.578 1131.88C226.585 1131.51 226.083 1130.41 226.455 1129.42L229.489 1121.28C229.861 1120.28 230.96 1119.78 231.952 1120.15L232.138 1120.22C233.131 1120.6 233.634 1121.69 233.261 1122.69L230.228 1130.83C229.855 1131.82 228.757 1132.33 227.764 1131.95Z" fill="black"/>
<path d="M238.939 1135.49L238.753 1135.42C237.76 1135.04 237.257 1133.95 237.63 1132.95L240.663 1124.81C241.036 1123.82 242.134 1123.31 243.127 1123.69L243.313 1123.76C244.305 1124.13 244.808 1125.23 244.436 1126.22L241.402 1134.36C241.03 1135.35 239.931 1135.85 238.939 1135.49Z" fill="black"/>
<path d="M250.566 1137.8L250.38 1137.73C249.387 1137.36 248.884 1136.26 249.257 1135.26L252.291 1127.12C252.663 1126.13 253.761 1125.63 254.754 1126L254.94 1126.07C255.933 1126.44 256.435 1127.54 256.063 1128.53L253.029 1136.67C252.663 1137.67 251.558 1138.17 250.566 1137.8Z" fill="black"/>
<path d="M261.889 1140.93L261.702 1140.86C260.71 1140.49 260.207 1139.39 260.579 1138.4L263.613 1130.26C263.986 1129.26 265.084 1128.76 266.077 1129.13L266.263 1129.2C267.255 1129.57 267.758 1130.67 267.386 1131.67L264.352 1139.81C263.986 1140.8 262.881 1141.3 261.889 1140.93Z" fill="black"/>
<path d="M273.646 1142.9L273.46 1142.83C272.467 1142.46 271.965 1141.36 272.337 1140.37L275.371 1132.23C275.743 1131.23 276.841 1130.73 277.834 1131.1L278.02 1131.17C279.013 1131.54 279.516 1132.64 279.143 1133.63L276.109 1141.78C275.737 1142.77 274.639 1143.27 273.646 1142.9Z" fill="black"/>
<path d="M285.416 1144.83L285.23 1144.76C284.237 1144.39 283.735 1143.29 284.107 1142.3L287.141 1134.16C287.513 1133.16 288.611 1132.66 289.604 1133.03L289.79 1133.1C290.783 1133.47 291.285 1134.57 290.913 1135.57L287.879 1143.71C287.513 1144.69 286.409 1145.2 285.416 1144.83Z" fill="black"/>
<path d="M203.424 1135.71L203.468 1135.59C203.288 1135.56 203.108 1135.52 202.934 1135.46L189.576 1130.46C188.255 1129.97 187.616 1128.41 188.149 1126.98L200.198 1094.68C200.732 1093.25 202.233 1092.5 203.555 1092.99L216.913 1097.98C217.695 1098.27 218.234 1098.94 218.439 1099.74C219.488 1100.2 220.542 1100.66 221.616 1101.11C221.976 1098.4 220.58 1095.76 218.092 1094.82L204.734 1089.83C201.805 1088.74 198.461 1090.42 197.282 1093.59L185.233 1125.89C184.054 1129.06 185.475 1132.52 188.403 1133.62L201.762 1138.61C203.766 1139.36 205.962 1138.8 207.532 1137.37C206.161 1136.83 204.796 1136.27 203.424 1135.71Z" fill="#AC8CCE"/>
<path d="M200.49 1110.08L194.676 1107.91C193.634 1107.52 192.449 1108.12 192.027 1109.24C191.605 1110.37 192.107 1111.6 193.15 1111.99L198.963 1114.16L200.49 1110.08Z" fill="white"/>
<path d="M454.666 845.734C454.666 845.734 425.996 848.144 424.997 855.769C423.992 863.395 426.2 876.839 453.264 879.447H481.296C481.296 879.447 472.907 856.173 473.311 855.372C473.708 854.558 454.666 845.734 454.666 845.734Z" fill="#B96B4A"/>
<path d="M408.667 959.472C404.783 961.533 403.43 966.445 405.639 970.252C418.83 993.023 471.288 1083.52 476.016 1090.88C481.426 1099.31 494.66 1119.17 538.563 1129.41C582.465 1139.64 600.507 1169.14 600.507 1169.14H735.832C735.832 1169.14 703.954 1118.57 677.492 987.347C677.492 987.347 657.042 878.397 618.55 882.005C618.55 882.005 595.091 857.328 572.24 862.14C572.24 862.14 528.939 836.258 504.277 836.258L445.05 766.2C439.186 759.264 428.856 757.91 421.646 763.424C419.326 765.2 417.558 767.548 417.074 770.646C415.268 782.085 430.308 810.978 454.362 845.889C478.417 880.801 537.961 991.563 512.101 1040.32C512.101 1040.32 485.639 1020.45 462.782 988.552C443.641 961.837 421.131 952.852 408.667 959.472Z" fill="#B96B4A"/>
<path d="M504.5 836.289C512.361 843.02 519.726 850.323 526.681 857.998C536.081 868.232 547.937 883.402 554.905 895.12C563.69 909.607 569.485 922.312 572.228 938.265L572.048 938.302C568.89 923.318 560.65 907.173 553.465 896.02C548.092 887.302 538.147 873.448 525.608 858.93C519.31 851.658 511.319 843.07 504.376 836.413L504.5 836.289Z" fill="#F19A5E"/>
<path d="M571.856 861.96C578.252 865.232 583.954 869.803 588.992 874.969C594.092 880.111 598.33 885.942 601.978 892.307C605.539 898.622 608.275 905.403 610.106 912.389C611.657 918.934 612.662 923.374 612.829 933.738L612.65 933.751C612.054 926.653 610.763 919.617 608.747 912.793C606.718 906.186 603.864 899.088 600.408 893.195C596.946 886.979 592.733 881.191 587.944 875.932C583.414 870.97 577.495 865.617 571.762 862.121L571.856 861.96Z" fill="#F19A5E"/>
<path d="M618.054 881.509C623.712 885.787 629.433 893.369 632.212 898.486C635.705 904.497 638.472 911.477 640.296 919.121C641.637 924.008 641.972 928.759 642.183 933.726L642.003 933.751C641.171 928.932 640.644 925.343 638.932 919.506C636.301 910.663 634.241 906.112 630.717 899.293C628.614 895.089 623.147 886.762 617.973 881.633L618.054 881.509Z" fill="#F19A5E"/>
<path d="M435.979 987.496C437.176 981.404 430.084 971.735 423.644 964.445C419.624 959.893 413.277 958.192 407.699 960.098C404.578 962.408 403.629 966.786 405.639 970.257C409.182 976.374 415.566 987.39 423.092 1000.36C428.726 997.487 434.868 993.134 435.979 987.496Z" fill="#DF9866"/>
<path d="M441.668 793.703C445.087 793.02 460.61 787.853 459.661 785.021L444.349 766.914C441.308 763.318 437.065 761.226 432.678 760.81C432.653 760.81 432.628 760.804 432.604 760.804C432.479 760.791 432.2 760.772 431.803 760.772C429.75 760.772 424.693 761.362 423.582 766.92C422.484 772.416 431.574 785.767 435.575 791.318C436.971 793.237 439.348 794.168 441.668 793.703Z" fill="#DF9866"/>
<path opacity="0.2" d="M600.514 1169.14H735.838C735.838 1169.14 714.942 1135.99 692.935 1053.71C683.281 1114.29 630.009 1110.8 608.871 1114.16C584.531 1118.03 490.044 1098.31 476.804 1092.1C482.692 1101.1 496.652 1119.64 538.569 1129.42C582.465 1139.65 600.514 1169.14 600.514 1169.14Z" fill="#F6C19D"/>
<path opacity="0.2" d="M461.516 856.881C488.046 899.548 535.653 997.562 512.101 1040.33L527.73 1055.77C527.73 1055.77 567.227 1011.98 504.376 915.408C489.752 892.928 475.215 873.486 461.516 856.881Z" fill="#F6C19D"/>
<path d="M140.189 833.588C137.366 831.148 135.045 829.993 135.021 829.98L135.74 828.515C135.84 828.564 138.272 829.775 141.25 832.352L140.189 833.588Z" fill="#141414"/>
<path d="M142.776 991.172C139.848 988.024 137.18 984.807 134.853 981.609L136.169 980.646C138.458 983.795 141.082 986.962 143.967 990.06L142.776 991.172ZM128.276 971.04C126.322 967.258 124.734 963.377 123.561 959.502L125.118 959.03C126.26 962.812 127.811 966.6 129.722 970.289L128.276 971.04ZM121.172 947.257C120.999 945.357 120.906 943.407 120.906 941.469C120.906 939.277 121.017 937.029 121.247 934.788L122.866 934.949C122.649 937.141 122.537 939.333 122.537 941.469C122.537 943.357 122.624 945.257 122.792 947.108L121.172 947.257ZM125.075 922.958L123.499 922.542C124.504 918.729 125.782 914.873 127.408 910.75L128.922 911.346C127.321 915.407 126.068 919.207 125.075 922.958ZM133.891 900.125L132.427 899.411C134.009 896.157 135.815 892.661 138.104 888.42L139.538 889.196C137.26 893.418 135.467 896.89 133.891 900.125ZM145.45 878.36L144.011 877.596L144.054 877.509C146.12 873.709 147.709 869.977 148.776 866.419L150.339 866.884C149.241 870.554 147.609 874.392 145.488 878.292L145.45 878.36ZM150.439 854.515C150.29 850.41 149.322 846.529 147.554 842.971L149.012 842.244C150.879 846.013 151.909 850.118 152.064 854.459L150.439 854.515Z" fill="#141414"/>
<path d="M156.668 1004.11C154.949 1002.7 153.274 1001.27 151.686 999.854L152.771 998.637C154.341 1000.04 156.004 1001.46 157.704 1002.85L156.668 1004.11Z" fill="#141414"/>
<path d="M129.462 805.986L127.302 832.259L112.052 815.071L62.7393 774.646L104.793 787.903C104.793 787.903 125.497 797.969 126.446 799.298C127.396 800.627 129.462 805.986 129.462 805.986Z" fill="#9369BF"/>
<path d="M151.804 794.697L62.7393 774.646L129.462 805.986L151.804 794.697Z" fill="#AC8CCE"/>
<path d="M95.207 825.441L122.662 811.73L62.7393 774.646L95.207 825.441Z" fill="#AC8CCE"/>
<path d="M420.12 679.052H416.553C408.189 679.052 401.407 672.265 401.407 663.894V649.55H435.265V663.894C435.265 672.271 428.484 679.052 420.12 679.052Z" fill="#085FCC"/>
<path d="M386.256 679.052H382.689C374.325 679.052 367.544 672.265 367.544 663.894V649.55H401.401V663.894C401.407 672.271 394.626 679.052 386.256 679.052Z" fill="#88B2E7"/>
<path d="M352.399 679.052H348.831C340.468 679.052 333.686 672.265 333.686 663.894V649.55H367.544V663.894C367.544 672.271 360.763 679.052 352.399 679.052Z" fill="#085FCC"/>
<path d="M318.541 679.052H314.974C306.61 679.052 299.829 672.265 299.829 663.894V649.55H333.686V663.894C333.686 672.271 326.905 679.052 318.541 679.052Z" fill="#88B2E7"/>
<path d="M284.678 679.052H281.11C272.746 679.052 265.965 672.265 265.965 663.894V649.55H299.823V663.894C299.823 672.271 293.041 679.052 284.678 679.052Z" fill="#085FCC"/>
<path d="M521.624 679.052H518.057C509.693 679.052 502.912 672.265 502.912 663.894V649.55H536.769V663.894C536.769 672.271 529.988 679.052 521.624 679.052Z" fill="#88B2E7"/>
<path d="M487.761 679.052H484.193C475.83 679.052 469.048 672.265 469.048 663.894V649.55H502.906V663.894C502.906 672.271 496.124 679.052 487.761 679.052Z" fill="#085FCC"/>
<path d="M453.978 679.052H450.41C442.046 679.052 435.265 672.265 435.265 663.894V649.55H469.123V663.894C469.123 672.271 462.347 679.052 453.978 679.052Z" fill="#88B2E7"/>
<path d="M250.82 679.052H247.253C238.889 679.052 232.108 672.265 232.108 663.894V649.55H265.965V663.894C265.965 672.271 259.184 679.052 250.82 679.052Z" fill="#88B2E7"/>
<path d="M396.512 606.69H372.439L367.544 649.556H401.408L396.512 606.69Z" fill="#DAE7F7"/>
<path d="M372.439 606.69H348.366L333.686 649.556H367.544L372.439 606.69Z" fill="#669CDF"/>
<path d="M348.366 606.69H324.286L299.822 649.556H333.686L348.366 606.69Z" fill="#DAE7F7"/>
<path d="M324.287 606.69H300.213L265.965 649.556H299.823L324.287 606.69Z" fill="#669CDF"/>
<path d="M300.213 606.69H276.14L232.101 649.556H265.965L300.213 606.69Z" fill="#DAE7F7"/>
<path d="M492.65 606.69H468.577L502.906 649.556H536.769L492.65 606.69Z" fill="#DAE7F7"/>
<path d="M468.694 606.69H444.621L469.048 649.556H502.906L468.694 606.69Z" fill="#669CDF"/>
<path d="M444.621 606.69H420.548L435.265 649.556H469.122L444.621 606.69Z" fill="#DAE7F7"/>
<path d="M420.548 606.69H396.475L401.408 649.556H435.265L420.548 606.69Z" fill="#669CDF"/>
<path d="M449.61 906.037H319.261C311.933 906.037 305.996 900.094 305.996 892.76V889.631C305.996 882.303 311.933 876.36 319.255 876.36H449.597C456.925 876.36 462.862 882.303 462.862 889.637V892.766C462.868 900.094 456.931 906.037 449.61 906.037Z" fill="#4385D8"/>
<path d="M352.759 893.519C352.759 893.922 352.709 894.289 352.603 894.63C352.504 894.965 352.361 895.276 352.175 895.543C351.989 895.816 351.772 896.052 351.511 896.251C351.251 896.456 350.959 896.623 350.637 896.766C350.314 896.903 349.96 897.008 349.594 897.077C349.222 897.145 348.8 897.182 348.316 897.182H344.984C344.836 897.182 344.693 897.133 344.556 897.027C344.42 896.928 344.352 896.748 344.352 896.493V885.111C344.352 884.856 344.42 884.676 344.556 884.57C344.693 884.471 344.836 884.415 344.984 884.415H347.882C348.645 884.415 349.265 884.49 349.756 884.632C350.24 884.775 350.649 884.986 350.972 885.266C351.294 885.539 351.542 885.881 351.704 886.284C351.865 886.688 351.952 887.141 351.952 887.644C351.952 887.948 351.915 888.234 351.847 888.513C351.772 888.787 351.667 889.048 351.524 889.277C351.381 889.513 351.207 889.718 350.99 889.904C350.779 890.091 350.531 890.24 350.258 890.358C350.606 890.426 350.934 890.544 351.232 890.718C351.536 890.892 351.797 891.115 352.026 891.382C352.25 891.656 352.43 891.966 352.566 892.326C352.69 892.686 352.759 893.084 352.759 893.519ZM350.202 887.806C350.202 887.495 350.159 887.216 350.072 886.967C349.985 886.719 349.855 886.508 349.669 886.328C349.483 886.154 349.247 886.023 348.949 885.93C348.657 885.837 348.267 885.794 347.776 885.794H346.027V889.929H347.956C348.397 889.929 348.751 889.873 349.017 889.755C349.284 889.644 349.507 889.488 349.687 889.29C349.867 889.097 349.991 888.867 350.078 888.607C350.165 888.352 350.202 888.085 350.202 887.806ZM350.972 893.618C350.972 893.239 350.91 892.904 350.792 892.612C350.668 892.32 350.494 892.078 350.258 891.879C350.022 891.68 349.731 891.531 349.383 891.432C349.03 891.326 348.589 891.277 348.062 891.277H346.033V895.773H348.49C348.875 895.773 349.216 895.723 349.501 895.636C349.793 895.543 350.041 895.406 350.264 895.226C350.482 895.046 350.655 894.823 350.779 894.549C350.91 894.282 350.972 893.972 350.972 893.618Z" fill="white"/>
<path d="M364.919 892.462C364.919 893.239 364.808 893.928 364.578 894.536C364.348 895.145 364.026 895.66 363.61 896.083C363.188 896.505 362.679 896.822 362.071 897.039C361.47 897.256 360.781 897.362 360.012 897.362C359.31 897.362 358.665 897.263 358.088 897.058C357.511 896.853 357.015 896.555 356.599 896.157C356.183 895.76 355.867 895.263 355.644 894.661C355.42 894.065 355.309 893.369 355.309 892.587V884.663C355.309 884.613 355.321 884.564 355.346 884.526C355.371 884.489 355.42 884.452 355.482 884.433C355.551 884.408 355.631 884.39 355.737 884.377C355.842 884.359 355.979 884.353 356.152 884.353C356.308 884.353 356.444 884.359 356.556 884.377C356.667 884.396 356.754 884.415 356.816 884.433C356.878 884.458 356.922 884.489 356.947 884.526C356.971 884.564 356.984 884.613 356.984 884.663V892.375C356.984 892.965 357.058 893.487 357.201 893.922C357.344 894.363 357.555 894.729 357.828 895.021C358.101 895.313 358.429 895.536 358.814 895.685C359.199 895.834 359.627 895.909 360.111 895.909C360.601 895.909 361.042 895.834 361.426 895.691C361.811 895.549 362.133 895.331 362.4 895.039C362.667 894.748 362.872 894.394 363.008 893.965C363.151 893.537 363.219 893.04 363.219 892.469V884.663C363.219 884.613 363.232 884.564 363.256 884.526C363.281 884.489 363.331 884.452 363.393 884.433C363.461 884.408 363.548 884.39 363.654 884.377C363.759 884.359 363.896 884.353 364.063 884.353C364.218 884.353 364.355 884.359 364.46 884.377C364.572 884.396 364.652 884.415 364.715 884.433C364.777 884.458 364.82 884.489 364.851 884.526C364.882 884.564 364.894 884.613 364.894 884.663V892.462H364.919Z" fill="white"/>
<path d="M392.336 896.474C392.336 896.604 392.312 896.716 392.268 896.809C392.225 896.902 392.169 896.977 392.095 897.033C392.026 897.095 391.946 897.132 391.853 897.163C391.766 897.188 391.679 897.2 391.586 897.2H391.027C390.854 897.2 390.698 897.182 390.562 897.144C390.432 897.107 390.301 897.045 390.184 896.946C390.066 896.853 389.948 896.722 389.824 896.555C389.706 896.393 389.582 896.182 389.445 895.921L385.555 888.662C385.35 888.289 385.146 887.892 384.941 887.482C384.736 887.072 384.544 886.675 384.364 886.284H384.345C384.358 886.756 384.37 887.24 384.376 887.73C384.382 888.221 384.389 888.712 384.389 889.202V896.908C384.389 896.952 384.376 897.002 384.345 897.045C384.32 897.089 384.271 897.12 384.202 897.144C384.134 897.169 384.047 897.188 383.942 897.207C383.836 897.225 383.7 897.231 383.532 897.231C383.365 897.231 383.228 897.225 383.123 897.207C383.017 897.188 382.931 897.169 382.869 897.144C382.807 897.12 382.763 897.089 382.732 897.045C382.707 897.002 382.689 896.958 382.689 896.908V885.141C382.689 884.88 382.763 884.688 382.912 884.582C383.061 884.47 383.222 884.414 383.402 884.414H384.233C384.432 884.414 384.593 884.433 384.724 884.464C384.854 884.495 384.978 884.551 385.077 884.626C385.183 884.7 385.282 884.806 385.381 884.942C385.481 885.079 385.58 885.247 385.692 885.451L388.682 891.053C388.868 891.394 389.042 891.73 389.216 892.052C389.389 892.375 389.551 892.698 389.712 893.015C389.873 893.332 390.028 893.642 390.184 893.946C390.339 894.251 390.494 894.561 390.643 894.872H390.655C390.643 894.35 390.636 893.81 390.63 893.251C390.624 892.692 390.624 892.146 390.624 891.63V884.706C390.624 884.663 390.636 884.619 390.667 884.576C390.692 884.539 390.742 884.501 390.81 884.47C390.878 884.439 390.965 884.421 391.071 884.408C391.176 884.396 391.319 884.39 391.493 884.39C391.648 884.39 391.778 884.396 391.89 884.408C392.001 884.421 392.088 884.446 392.15 884.47C392.212 884.501 392.256 884.532 392.287 884.576C392.318 884.613 392.33 884.657 392.33 884.706V896.474H392.336Z" fill="white"/>
<path d="M406.414 890.649C406.414 891.68 406.29 892.612 406.048 893.444C405.806 894.27 405.44 894.978 404.963 895.561C404.479 896.145 403.871 896.592 403.145 896.903C402.413 897.213 401.563 897.368 400.595 897.368C399.633 897.368 398.808 897.225 398.107 896.94C397.406 896.654 396.829 896.238 396.376 895.692C395.917 895.145 395.575 894.468 395.358 893.661C395.135 892.854 395.023 891.922 395.023 890.867C395.023 889.861 395.147 888.948 395.389 888.122C395.631 887.302 395.997 886.601 396.481 886.029C396.965 885.452 397.573 885.011 398.305 884.7C399.037 884.39 399.887 884.229 400.855 884.229C401.792 884.229 402.611 884.371 403.312 884.651C404.007 884.936 404.59 885.346 405.05 885.887C405.515 886.427 405.856 887.097 406.086 887.898C406.297 888.7 406.414 889.619 406.414 890.649ZM404.615 890.767C404.615 890.041 404.553 889.37 404.423 888.749C404.293 888.128 404.082 887.588 403.784 887.128C403.486 886.675 403.089 886.315 402.586 886.06C402.09 885.806 401.47 885.675 400.737 885.675C399.999 885.675 399.385 885.812 398.889 886.091C398.392 886.365 397.983 886.737 397.672 887.197C397.362 887.656 397.139 888.197 397.002 888.811C396.866 889.426 396.804 890.072 396.804 890.749C396.804 891.5 396.866 892.189 396.99 892.817C397.114 893.45 397.325 893.99 397.623 894.45C397.921 894.909 398.312 895.263 398.808 895.518C399.304 895.772 399.925 895.897 400.675 895.897C401.414 895.897 402.04 895.76 402.543 895.481C403.045 895.201 403.455 894.829 403.765 894.363C404.075 893.891 404.293 893.351 404.423 892.73C404.553 892.109 404.615 891.457 404.615 890.767Z" fill="white"/>
<path d="M421.088 896.804C421.063 896.897 421.02 896.971 420.97 897.027C420.92 897.083 420.846 897.127 420.753 897.158C420.66 897.189 420.548 897.207 420.412 897.22C420.275 897.232 420.114 897.238 419.915 897.238C419.71 897.238 419.537 897.232 419.4 897.22C419.257 897.207 419.14 897.183 419.053 897.158C418.96 897.127 418.891 897.083 418.848 897.027C418.805 896.971 418.767 896.897 418.743 896.804L416.075 887.166H416.056L413.593 896.804C413.574 896.897 413.543 896.971 413.494 897.027C413.45 897.083 413.382 897.127 413.295 897.158C413.208 897.189 413.097 897.207 412.966 897.22C412.83 897.232 412.656 897.238 412.451 897.238C412.234 897.238 412.054 897.232 411.911 897.22C411.769 897.207 411.651 897.183 411.558 897.158C411.465 897.127 411.397 897.083 411.347 897.027C411.297 896.971 411.26 896.897 411.241 896.804L407.872 885.018C407.835 884.869 407.81 884.751 407.81 884.664C407.804 884.577 407.835 884.515 407.891 884.465C407.947 884.421 408.04 884.39 408.164 884.378C408.288 884.366 408.456 884.359 408.667 884.359C408.871 884.359 409.033 884.366 409.151 884.372C409.268 884.384 409.361 884.397 409.424 884.428C409.486 884.453 409.529 884.49 409.554 884.539C409.579 884.583 409.597 884.645 409.61 884.72L412.476 895.413H412.489L415.212 884.738C415.231 884.664 415.256 884.608 415.287 884.558C415.318 884.508 415.361 884.471 415.429 884.446C415.498 884.421 415.591 884.403 415.709 884.384C415.833 884.372 415.988 884.366 416.186 884.366C416.372 884.366 416.515 884.372 416.627 884.384C416.739 884.397 416.819 884.415 416.887 884.446C416.956 884.471 416.999 884.508 417.03 884.558C417.061 884.608 417.086 884.67 417.105 884.738L420.033 895.413H420.052L422.862 884.732C422.881 884.664 422.9 884.608 422.918 884.558C422.937 884.508 422.98 884.471 423.042 884.446C423.104 884.421 423.191 884.403 423.309 884.384C423.421 884.372 423.576 884.366 423.768 884.366C423.967 884.366 424.122 884.372 424.24 884.39C424.351 884.409 424.438 884.44 424.488 884.484C424.544 884.527 424.568 884.595 424.562 884.682C424.556 884.769 424.544 884.887 424.506 885.036L421.088 896.804Z" fill="white"/>
<path d="M366.475 884.909L371.205 892.605V898H372.79V892.605L377.52 884.909H375.705L372.074 891.02H371.921L368.29 884.909H366.475Z" fill="white"/>
<path d="M579 71.2238L611.327 39L629.735 57.3497M645 72.5664L629.735 57.3497M629.735 57.3497C629.735 57.3497 629.735 48.4845 629.735 42.8042M605.041 103H592.918C591.122 102.851 587.351 101.389 586.633 96.7343C585.914 92.0797 586.333 82.2634 586.633 77.9371L611.327 53.3217L637.816 77.9371V96.7343C637.667 98.8228 636.2 103 631.531 103C626.861 103 620.905 103 618.51 103V85.5455H605.041V103Z" stroke="#EEF4FB" stroke-opacity="0.7" stroke-width="4" stroke-linecap="round" stroke-linejoin="round"/>
<defs>
<linearGradient id="paint0_linear_32_3437" x1="419" y1="0" x2="419" y2="1190" gradientUnits="userSpaceOnUse">
<stop stop-color="#023369"/>
<stop offset="1" stop-color="#0032E3"/>
</linearGradient>
</defs>
</svg>
