<svg width="83" height="59" viewBox="0 0 83 59" fill="none" xmlns="http://www.w3.org/2000/svg">
<path d="M51.6635 18.6696V24.9883H56.5703V28.4371H51.6635V44.6197C51.6635 45.6648 51.8821 46.4526 52.3194 46.9832C52.7566 47.4977 53.5015 47.755 54.5541 47.755C55.0723 47.755 55.7849 47.6585 56.6918 47.4656V51.0831C55.5096 51.4047 54.3598 51.5655 53.2424 51.5655C51.2344 51.5655 49.7202 50.9626 48.7 49.7567C47.6798 48.5508 47.1696 46.8385 47.1696 44.6197V28.4371H42.3843V24.9883H47.1696V18.6696H51.6635Z" fill="#101121"/>
<path d="M72.7482 51.5655C69.1855 51.5655 66.2867 50.4079 64.052 48.0926C61.8172 45.7613 60.6998 42.6502 60.6998 38.7592V37.9393C60.6998 35.3507 61.1937 33.0435 62.1815 31.0176C63.1856 28.9757 64.5783 27.384 66.3596 26.2424C68.1572 25.0848 70.1004 24.506 72.1895 24.506C75.6064 24.506 78.2623 25.6234 80.157 27.8583C82.0517 30.0931 82.999 33.2927 82.999 37.4569V39.3139H65.1936C65.2584 41.8864 66.0114 43.9686 67.4527 45.5603C68.9102 47.136 70.7563 47.9238 72.9911 47.9238C74.5781 47.9238 75.9222 47.6022 77.0234 46.9591C78.1246 46.316 79.0882 45.4638 79.9141 44.4027L82.659 46.525C80.4566 49.8853 77.153 51.5655 72.7482 51.5655ZM72.1895 28.1718C70.3757 28.1718 68.8535 28.831 67.6227 30.1494C66.392 31.4517 65.6309 33.2846 65.3394 35.6481H78.5052V35.3105C78.3756 33.0435 77.7602 31.2909 76.659 30.0529C75.5578 28.7988 74.068 28.1718 72.1895 28.1718Z" fill="#101121"/>
<path d="M22.1814 45.7523C20.9885 46.4356 19.7268 46.7772 18.3964 46.7772C17.0047 46.7772 15.8654 46.4052 14.9784 45.6612C14.0914 44.9172 13.6479 43.8847 13.6479 42.5638C13.6479 39.5423 16.2477 38.0315 21.4473 38.0315H24.7735V43.0876C24.2383 44.1808 23.3742 45.069 22.1814 45.7523Z" fill="#101121"/>
<path fill-rule="evenodd" clip-rule="evenodd" d="M40.8477 38.09C40.8477 49.6383 31.7034 59 20.4233 59C9.1433 59 -0.000976562 49.6383 -0.000976562 38.09C-0.000976562 26.5417 9.1433 17.1799 20.4233 17.1799C31.7034 17.1799 40.8477 26.5417 40.8477 38.09ZM24.8423 47.3921C24.9953 48.6372 25.1941 49.5026 25.4388 49.9885H29.889V49.6241C29.3079 48.2879 29.0173 46.4887 29.0173 44.2264V32.8843C28.9562 30.3942 28.115 28.4431 26.494 27.0311C24.8729 25.6038 22.6325 24.8902 19.7727 24.8902C17.9682 24.8902 16.3089 25.2242 14.7949 25.8923C13.2962 26.5604 12.1033 27.4714 11.2163 28.6253C10.3446 29.7641 9.90876 30.9484 9.90876 32.1783H14.1755C14.1755 31.1002 14.6878 30.1816 15.7124 29.4225C16.7371 28.6633 18.0064 28.2837 19.5204 28.2837C21.2485 28.2837 22.556 28.724 23.443 29.6047C24.33 30.4701 24.7735 31.6393 24.7735 33.112V35.0479H20.6444C17.0812 35.0479 14.3131 35.7616 12.3403 37.1888C10.3828 38.6009 9.4041 40.5899 9.4041 43.1559C9.4041 45.2664 10.184 47.0125 11.7439 48.3942C13.3191 49.7607 15.3301 50.444 17.777 50.444C20.5144 50.444 22.8696 49.4267 24.8423 47.3921Z" fill="#101121"/>
<path fill-rule="evenodd" clip-rule="evenodd" d="M15.949 0.37169C16.6083 0.0727592 18.5635 -0.684028 19.1504 1.50687L23.3389 13.1992C23.5104 13.8349 23.6286 14.4177 23.6172 14.9134C22.5729 14.762 21.5057 14.6825 20.4234 14.6825C19.7411 14.6825 19.0704 14.7166 18.4034 14.7771L11.5775 5.48C10.0873 3.7621 11.8176 2.58529 12.4389 2.21447L15.949 0.37169Z" fill="#101121"/>
</svg>
